<svg width="1em" height="1em" enable-background="new 0 0 160 160" viewBox="0 0 160 160" xmlns="http://www.w3.org/2000/svg"><path d="m96 161c-32 0-63.499992 0-94.999991 0-.000003-53.333321-.000003-106.666645-.000006-159.999977 53.333314-.000008 106.666631-.000008 159.999966-.000015 0 53.333305 0 106.666618.000016 159.999961-21.499985.000031-42.999985.000031-64.999985.000031m33.352676-81.094589c2.290055 2.546959 4.580109 5.093918 7.021271 7.808952 3.513748-3.444961 6.287003-6.16391 9.359985-9.176735-3.059371-2.912437-5.879302-5.596931-9.065689-8.630279-2.764267 2.947258-5.206802 5.551483-8.34761 8.115135-2.896782-2.583191-5.793564-5.166382-8.46405-7.547775-3.063919 2.979354-5.742554 5.584068-8.105149 7.881454 2.846138 2.855232 5.598854 5.616737 8.341767 8.368416 2.930145-2.452591 5.928856-4.962578 9.259475-6.819168m-42.360679 40.298568c4.988113 8.618836 13.481193 9.105225 23.024383 8.996888-5.121803 8.163849-13.061897 6.647216-19.754722 8.160598v13.288468c20.087211.258468 31.391197-5.942703 34.484619-21.67334 3.325165 0 6.799225.180054 10.248642-.035065 8.978973-.559967 16.111694-6.601539 16.776672-14.868881.530258-6.592369.106995-13.261421.106995-20.429863-2.92569.829208-5.40567 1.899246-7.972473 2.182556-5.220719.576256-6.468262 3.237465-6.391419 8.286728.173004 11.366844-.374344 11.583702-11.890754 10.875908-.286431-.017601-.557076-.292152-1.094407-.591179-.142517-2.146118-.247116-4.449814-.456276-6.743973-.87532-9.600708-8.094505-16.914924-17.335296-17.603294-11.17305-.832298-18.797981 4.200813-20.733734 14.853775-.849305 4.673981.372238 9.724258.98777 15.300674m-53.939583.199585c-.618076-2.128089-1.726986-4.246322-1.769911-6.385955-.193531-9.647354-.037334-19.301278-.140905-28.951401-.014218-1.324722-.403515-3.414681-1.259676-3.830017-4.042557-1.961121-8.307945-3.462906-12.910195-5.294129 0 14.269951-.080484 27.741967.025286 41.21251.085682 10.911758 7.171236 19.20549 17.787373 17.236663 9.516754-1.764969 17.488903.365509 25.952388 2.880921.792885.235672 1.626622.360031 2.4506.460785 6.576534.804229 12.569142-2.136566 14.775471-8.447312 1.484703-4.246689 2.123573-9.086746 1.856743-13.585182-.529877-8.933319-6.95102-16.205597-14.437187-17.587166-9.413991-1.737343-17.427636 2.236733-21.858113 10.997154-1.116653 2.207963-1.942791 4.581078-2.718971 6.938691-1.139046 3.459808-3.219193 5.334068-7.752903 4.354438m-8.098478-49.712478c11.325437 5.756973 23.160722 5.51181 35.019834 2.45034 8.835625-2.28096 14.02375-8.742256 14.728523-17.527431.805771-10.043988.186623-20.20229.186623-30.339066-4.826111 0-9.354904 0-14.012379 0 0 8.40044.107823 16.396599-.029754 24.388531-.142979 8.305755-2.966019 11.090027-11.152249 11.344337-2.829563.087902-5.666885.116898-8.495243.017922-8.990017-.314614-13.552564-5.290104-12.291357-14.22369.70538-4.996464 2.579401-9.827946 4.035345-15.128847-4.061208-1.825829-8.21439-3.693003-13.549476-6.091538-1.880442 7.603197-4.38634 14.540751-5.161746 21.666613-1.004224 9.228676 2.022685 17.416996 10.721879 23.442829m19.495557-41.680865c1.311703.210356 3.109009 1.069876 3.849179.516196 2.865699-2.143662 5.394623-4.737526 7.383178-6.555165-3.333168-3.865434-6.022804-6.984571-8.653575-10.03544-3.179699 3.340464-6.002556 6.306046-9.148835 9.611399 1.866989 1.833187 3.972248 3.900333 6.570053 6.46301z" fill="#0000"/><path d="m86.824852 119.855476c-.448387-5.227913-1.66993-10.27819-.820625-14.952171 1.935753-10.652962 9.560684-15.686073 20.733734-14.853775 9.240791.68837 16.459976 8.002586 17.335296 17.603294.20916 2.294159.313759 4.597855.456276 6.743973.537331.299027.807976.573578 1.094407.591179 11.51641.707794 12.063758.490936 11.890754-10.875908-.076843-5.049263 1.1707-7.710472 6.391419-8.286728 2.566803-.28331 5.046783-1.353348 7.972473-2.182556 0 7.168442.423263 13.837494-.106995 20.429863-.664978 8.267342-7.797699 14.308914-16.776672 14.868881-3.449417.215119-6.923477.035065-10.248642.035065-3.093422 15.730637-14.397408 21.931808-34.484619 21.67334 0-4.382965 0-8.775711 0-13.288468 6.692825-1.513382 14.632919.003251 19.754722-8.160598-9.54319.108337-18.03627-.378052-23.191528-9.345391m13.973289-14.562896c-.465309 2.589752-2.041214 6.905349-1.191764 7.451988 2.764114 1.778725 6.414993 2.179413 9.866325 3.15036 1.086075-9.834847-1.505165-12.963112-8.674561-10.602348z" fill="currentColor"/><path d="m33.412437 120.586166c4.173687.797028 6.253834-1.077232 7.39288-4.53704.77618-2.357613 1.602318-4.730728 2.718971-6.938691 4.430477-8.760421 12.444122-12.734497 21.858113-10.997154 7.486167 1.381569 13.90731 8.653847 14.437187 17.587166.26683 4.498436-.37204 9.338493-1.856743 13.585182-2.206329 6.310746-8.198937 9.251541-14.775471 8.447312-.823978-.100754-1.657715-.225113-2.4506-.460785-8.463485-2.515412-16.435634-4.64589-25.952388-2.880921-10.616137 1.968827-17.701691-6.324905-17.787373-17.236663-.10577-13.470543-.025286-26.942559-.025286-41.21251 4.60225 1.831223 8.867638 3.333008 12.910195 5.294129.856161.415336 1.245458 2.505295 1.259676 3.830017.103571 9.650123-.052626 19.304047.140905 28.951401.042925 2.139633 1.151835 4.257866 2.129934 6.568557m29.288041 3.384957c3.414138.712822 4.126686-1.719399 3.982009-4.051224-.214942-3.464203-.979248-7.678757-5.181186-7.686668-2.061913-.003876-4.579327 2.98175-6.082924 5.169525-1.929596 2.807594.680679 3.968971 2.858177 4.920913 1.202828.525849 2.42337 1.011177 4.423924 1.647454z" fill="currentColor"/><path d="m24.663038 70.46373c-8.408296-5.798477-11.435205-13.986797-10.430981-23.215473.775406-7.125862 3.281304-14.063416 5.161746-21.666613 5.335086 2.398535 9.488268 4.265709 13.549476 6.091538-1.455944 5.300901-3.329965 10.132383-4.035345 15.128847-1.261207 8.933586 3.30134 13.909076 12.291357 14.22369 2.828358.098976 5.66568.06998 8.495243-.017922 8.18623-.25431 11.00927-3.038582 11.152249-11.344337.137577-7.991932.029754-15.988091.029754-24.388531h14.012379c0 10.136776.619148 20.295078-.186623 30.339066-.704773 8.785175-5.892898 15.246471-14.728523 17.527431-11.859112 3.06147-23.694397 3.306633-35.310732-2.677696z" fill="currentColor"/><path d="m44.203224 28.762457c-2.351536-2.314913-4.456795-4.382059-6.323784-6.215246 3.146279-3.305353 5.969136-6.270935 9.148835-9.611399 2.630771 3.050869 5.320407 6.170006 8.653575 10.03544-1.988555 1.817639-4.517479 4.411503-7.383178 6.555165-.74017.55368-2.537476-.30584-4.095448-.76396z" fill="currentColor"/><path d="m129.018906 78.063057c2.442535-2.604225 4.88507-5.20845 7.649337-8.155708 3.186387 3.033348 6.006318 5.717842 9.065689 8.630279-3.072982 3.012825-5.846237 5.731774-9.359985 9.176735-2.441162-2.715034-4.731216-5.261993-7.196701-8.333504-.176605-.789116-.170914-1.053535-.15834-1.317802z" fill="currentColor"/><path d="m128.669769 78.04277c.336563.284554.330872.548973.341523 1.011391-2.989235 2.70784-5.987946 5.217827-8.918091 7.670418-2.742913-2.751679-5.495629-5.513184-8.341767-8.368416 2.362595-2.297386 5.04123-4.9021 8.105149-7.881454 2.670486 2.381393 5.567268 4.964584 8.813186 7.568061z" fill="currentColor"/><path d="m101.128067 105.060989c6.83947-2.129173 9.43071.999092 8.344635 10.833939-3.451332-.970947-7.102211-1.371635-9.866325-3.15036-.84945-.546639.726455-4.862236 1.52169-7.683579z" fill="#0000"/><path d="m62.30648 123.904785c-1.606556-.569939-2.827098-1.055267-4.029926-1.581116-2.177498-.951942-4.787773-2.113319-2.858177-4.920913 1.503597-2.187775 4.021011-5.173401 6.082924-5.169525 4.201938.007911 4.966244 4.222465 5.181186 7.686668.144677 2.331825-.567871 4.764046-4.376007 3.984886z" fill="#0000"/></svg>